<?xml version="1.0" encoding="UTF-8"?>
<svg id="_图层_2" data-name="图层 2" xmlns="http://www.w3.org/2000/svg" xmlns:xlink="http://www.w3.org/1999/xlink" viewBox="0 0 250.94 258.91">
  <defs>
    <style>
      .cls-1 {
        fill: url(#_未命名的渐变_13);
      }

      .cls-2 {
        fill: url(#_未命名的渐变_21);
      }

      .cls-3 {
        fill: url(#_未命名的渐变_26);
      }

      .cls-4 {
        fill: #cff9ef;
      }
    </style>
    <linearGradient id="_未命名的渐变_26" data-name="未命名的渐变 26" x1="188.58" y1="1648.68" x2="315.67" y2="1686.34" gradientTransform="translate(-105 -1475)" gradientUnits="userSpaceOnUse">
      <stop offset="0" stop-color="#02e2e0"/>
      <stop offset="1" stop-color="#00aaef"/>
    </linearGradient>
    <linearGradient id="_未命名的渐变_21" data-name="未命名的渐变 21" x1="167.95" y1="4.65" x2="85.59" y2="59.55" gradientUnits="userSpaceOnUse">
      <stop offset="0" stop-color="#04f6bc"/>
      <stop offset="1" stop-color="#02ecc6"/>
    </linearGradient>
    <linearGradient id="_未命名的渐变_13" data-name="未命名的渐变 13" x1="90.82" y1="121.23" x2="25.47" y2="206.68" gradientUnits="userSpaceOnUse">
      <stop offset="0" stop-color="#06acee"/>
      <stop offset="1" stop-color="#00dee1"/>
    </linearGradient>
  </defs>
  <g id="_图层_1-2" data-name="图层 1">
    <path class="cls-3" d="M233.22,124.98c3.63,4.05.04,13.34-.67,18.85-2.69,13.08-6.27,28.85-9.87,42.25-2.43,8.15-4.32,18.09-9.36,24.09-3.61,4.19-8.93,7.85-14.01,9.59-14.73,4.26-65.9,18.14-94.55,26.11-15.79,4.35-34.69,9.6-47.05,12.93-5.73,1.3-.95-7.88,1.09-11.45,4.27-6.99,10-15.27,14.8-21.46,2.79-3.56,6.2-6.56,10.3-8.33,29.55-10.93,63.03-15.41,92.18-25.91,4.75-1.74,9.46-3.99,12.02-8.4,4.25-7.93,4.79-18.81,7.46-27.49,1.92-8.26,6.8-12.62,13.1-17.39,4.55-3.54,10.07-7.66,14.35-10.58,4.26-2.62,7.01-4.8,10.11-2.87l.08.07Z"/>
    <path class="cls-4" d="M250.94,91.92c-.64-5-15.13-9.39-19.7-11.72-20.29-7.99-22.29-10.95-23.06-32.49-.82-5.41,1.79-35.18-8.13-23.26-5.49,7.06-10.39,16.88-15.62,24.47-10.12,15.31-15.47,17.59-34.41,20.75-6.18,1.09-13.23,1.9-19.24,3.29-2.99.86-8.9,2.04-7.45,5.57,2.46,3.43,6.32,4.87,11.3,7.35,5.5,2.5,11.08,4.8,16.48,7.28,11.81,5.12,14.45,9.21,15,20.63.36,5.68.39,11.48.52,17.27.28,6.63,0,11.75,1.78,16.05,2.05,3.54,4.92.38,8.17-3.8,7.37-9.72,13.23-23.78,21.74-32.91,4.71-4.98,11.1-7.32,17.69-8.61,6.65-1.91,33.64-3.73,34.92-9.78v-.09Z"/>
    <path class="cls-4" d="M43.92,41.34c-7.76,6.41-8.79,13.62-11.24,22.71-5.84,21.61-9.23,43.98-15.32,65.55-.53,6.51,4.73,2.44,7.62.5,10.5-7.07,20.13-17.37,30.51-24.75,4.41-11.83,5.79-24.6,9.4-36.6.02-.08.04-.16.06-.24.03-.02.07-.03.11-.05,0,0,3.73-9.11,10.12-21.97,4.05-8.16,13.42-19.33,13.42-19.33-13.18,3.4-35.36,6.5-44.67,14.19Z"/>
    <path class="cls-2" d="M188.1,1.02c-.24-1.39-1.84-1.21-4.83-.36-7.01,1.97-21.94,6.16-30.22,8.48-5.44,1.67-10.19,2.32-15.78,3.74l-38.44,11.38c-2.78.76-5.46,1.56-8.19,2.34-.65.19-1.34.37-2.05.55,0,0-6.63,6.68-12.57,16.79-6.25,10.62-10.97,24.51-10.97,24.51,8.73-4.54,20.2-7.47,29.22-10.08,20.75-6.19,42.55-9.5,62.81-17.16,2.1-.85,3.89-1.56,5.8-2.8,3.43-2.21,5.8-5.78,8-9.14,3.56-5.38,8.82-11.61,12.56-17.42,1.94-2.83,5.06-8.53,4.66-10.84Z"/>
    <path class="cls-1" d="M108.66,172.96c-1.49-1.19-3.6-2.19-5.46-2.98-5.39-2.09-11.43-4.34-17.12-7.25-4.35-2.23-9.76-4.35-12.35-8.58-1.48-2.46-1.76-5.4-1.99-8.26-.54-7.69-.48-15.64-.82-23.43-.11-3.92-1.2-12.01-6.28-6.19-5.99,7.55-9.89,17.23-15.25,25.58-2.54,4.07-5.41,8.03-9.84,10.08-6.66,2.92-14.65,3.61-21.99,4.89-4.08.63-7.98,1.21-11.09,1.79-3.5.65-6.06,1.42-6.4,2.71-.76,1.58,4.12,4.51,6.46,5.56,6.39,3.01,12.59,5.57,18.61,8.92,8.41,4.09,12.16,8.51,12.04,18.14.1,6.97.61,13.71,1.06,20.41.15,2.02.31,4.39.99,6.18,1.82,3.98,5.17-1.06,6.39-3.03,4.99-8.93,11.71-20.45,17.65-29.23,2.76-4.09,7.13-5.11,11.71-5.96,9.08-1.8,22.6-3.66,29.98-5.06,2.55-.48,6.94-1.69,3.8-4.2l-.11-.09Z"/>
  </g>
</svg>