<?xml version="1.0" encoding="UTF-8"?>
<svg id="_图层_2" xmlns="http://www.w3.org/2000/svg" xmlns:xlink="http://www.w3.org/1999/xlink" version="1.1" viewBox="0 0 1264.2 258.9">
  <!-- Generator: Adobe Illustrator 29.7.1, SVG Export Plug-In . SVG Version: 2.1.1 Build 8)  -->
  <defs>
    <style>
      .st0 {
        fill: url(#_未命名的渐变_6);
      }

      .st1 {
        fill: #75fce2;
      }

      .st2 {
        fill: url(#_未命名的渐变_201);
      }

      .st3 {
        fill: url(#_未命名的渐变_21);
      }

      .st4 {
        fill: url(#_未命名的渐变_20);
      }

      .st5 {
        fill: #00aeee;
      }
    </style>
    <linearGradient id="_未命名的渐变_6" data-name="未命名的渐变 6" x1="188.6" y1="-1388.7" x2="315.7" y2="-1426.4" gradientTransform="translate(-105 -1215) scale(1 -1)" gradientUnits="userSpaceOnUse">
      <stop offset="0" stop-color="#02e2e0"/>
      <stop offset="1" stop-color="#00aaef"/>
    </linearGradient>
    <linearGradient id="_未命名的渐变_20" data-name="未命名的渐变 20" x1="123.1" y1="85.1" x2="250.9" y2="85.1" gradientUnits="userSpaceOnUse">
      <stop offset="0" stop-color="#04f6bc"/>
      <stop offset="1" stop-color="#02ecc6"/>
    </linearGradient>
    <linearGradient id="_未命名的渐变_201" data-name="未命名的渐变 20" x1="167.9" y1="255.4" x2="85.6" y2="200.5" gradientTransform="translate(0 260) scale(1 -1)" xlink:href="#_未命名的渐变_20"/>
    <linearGradient id="_未命名的渐变_21" data-name="未命名的渐变 21" x1="90.8" y1="138.8" x2="25.5" y2="53.3" gradientTransform="translate(0 260) scale(1 -1)" gradientUnits="userSpaceOnUse">
      <stop offset="0" stop-color="#06acee"/>
      <stop offset="1" stop-color="#00dee1"/>
    </linearGradient>
  </defs>
  <path class="st5" d="M370.9,94.4c4.1-48.8,86-47.8,110.7-15.6,2.4,3.4-2.4,5.1-5.1,8.2-2.5,2.5-9,10.6-13.3,13.3-.4.2-.5,0-1.3-.7-3.2-2.5-8.7-6.9-12.1-9.6-12-6.1-33.7-12.7-45.4-1.9-5.9,5.7-3.3,14.3,4.4,18.3,21.3,12,59.6,8.2,66.6,37.6,12,64.1-92.7,68.3-120.5,27.3-.9-5.4,14.3-15,18.5-19.7.4-.4.7-.3,1.2,0,14.5,12,30.1,21.9,50,20.1,6.6-.6,14.1-3,18-8.2,15.3-33.9-81.3-14.3-71.6-69.1Z"/>
  <path class="st5" d="M1206.9,59.3c3.2-.8,7.7-1.6,10.3,1-12.7,57-2.4,143.8-86.4,137.4-23.7-3-35.3-18.6-38.6-42.6-1.2-25.5,16-52.9,41.6-59.1,14.6-3.7,38.2-2.1,47.1,11.3.8-1.9,7.9-46.1,8.3-47.9,5.8-.2,11.9,0,17.7-.2h0ZM1165.4,120.5c-5.4-3.8-17.4-3.9-23.7-2.1-7.2,2.3-12.9,7.3-16.5,13.2-9.2,14.2-6.3,38,12.4,42,29.8,6.4,52.7-32.7,27.8-53.1Z"/>
  <path class="st5" d="M1045.2,185.9c-20.7,18.4-57.2,15.8-69.3-10.4-20.1-47.2,30.5-103.4,77-74,1.9,1.3,5.9,6.4,7.7,4.4.6-1.3.6-10.6,3.3-10.3h25.9c-.4,2.8-13,78-16.3,97.3-.2,2.3-1.2,3.2-3.4,3.5-6.5,1.1-15.8-.8-22.8-.2-1.7.4-.8-8.5-.6-9.8.2-2-.4-1.9-1.5-.6h0ZM1044.8,121.7c-37.5-21.3-65.2,38.1-29.8,51.6,29,8.1,54.1-31.1,29.8-51.6Z"/>
  <path class="st5" d="M562.9,147.1c2-33.1,29.6-56.1,62.8-52.4,8.4.9,17.9,4.4,22.8,11.7,1,1.8,2.5-.5,2.8-1.7,1-4.6,1-9.2,7.3-9,1.8,0,16.2,0,21.4,0-3.3,32.4-10.4,64.6-15.3,96.8-.4,1.4-1.7,3.6-3,3.8-2.6-.2-20.4.4-23.8-.2-2.5-1.4,1.2-10.1,1.2-12.4-33.2,29.8-82.2,9.8-76.2-36.7h0ZM637.4,123c-28.4-22-62,18.7-41.4,44.3,26.9,25,67.2-19.1,41.4-44.3Z"/>
  <path class="st5" d="M884.9,154.5c4.1,25.8,34,24.5,51.1,11.5,1.4-.6,1.8-1.1,2.6-.7,3.4,2.3,10.9,8.7,13.1,12.5,2.3,2.9-.9,4.9-3,6.8-18.6,15.7-53.7,17.9-74.6,4.3-28.8-19.9-16.8-70.9,10.8-86.8,26.1-14.8,74.1-10.3,79.4,25.1.6,4.6.9,24.2-2.2,26.8-1.9.8-75.1-.4-77.2.4h0c0,.1,0,.1,0,.1ZM921.3,136.6c4.9,0,9.9.5,14.6-.4,1.5-.4,1.7-1.9,1.5-3.4-1.7-4.7-4.9-10-8.6-13.5-8-5.3-25-4.6-31.6,3-2.7,2.7-6.3,6.8-8.4,9.6-1.1,1.7-2.3,2.6-.9,3.8,9.6,2.8,23,.7,33.4.9h0Z"/>
  <path class="st0" d="M233.2,125c3.6,4,0,13.3-.7,18.8-2.7,13.1-6.3,28.9-9.9,42.2-2.4,8.1-4.3,18.1-9.4,24.1-3.6,4.2-8.9,7.9-14,9.6-14.7,4.3-65.9,18.1-94.6,26.1-15.8,4.4-34.7,9.6-47,12.9-5.7,1.3-1-7.9,1.1-11.4,4.3-7,10-15.3,14.8-21.5,2.8-3.6,6.2-6.6,10.3-8.3,29.5-10.9,63-15.4,92.2-25.9,4.8-1.7,9.5-4,12-8.4,4.2-7.9,4.8-18.8,7.5-27.5,1.9-8.3,6.8-12.6,13.1-17.4,4.6-3.5,10.1-7.7,14.4-10.6,4.3-2.6,7-4.8,10.1-2.9h0c0,0,0,0,0,0Z"/>
  <path class="st5" d="M501.9,119.2c-3.4-1.4-14.9,1.1-17.4-.2,2.6-6.5,1.7-21.6,6.6-23.2,3.9-.8,8.9.3,12.9,0,1.5-.1,2.8-.5,3.2-1.2,1.4-4.7,3.3-26.4,5.6-28.1,7.9-.3,17.6,0,25.8-.1,1,0,.9-.2.8.6-1.4,8.6-3.3,20.6-4.6,28.7,1.3,0,25.8,0,28,0,.8,3.9-1.4,18.8-2.8,22.3-.2.3-.2.5-.6.6-2.7.5-5.6.6-8.4.6-5.8,0-11.6-.3-17.3-.1-2.3,0-3.2,2.4-3.5,4.4-1.1,10.1-7.9,37.1-4.9,44.8,2.3,4.9,8.6,5.1,14,4.8,3.4.7,11.8-3.7,12.8.6,0,2.2-2.8,18-3.7,20.1-1.5,2.4-4.9,2.9-9.4,3.5-63.5,4.5-37.8-39-37.1-78.1h0Z"/>
  <path class="st5" d="M769.5,196.3c-.6-.2-2.2-.9-2.7-1.4.2-13.6,4.9-35.9,7.5-50.4,7.2-41.2,45.8-58.9,84.3-46.5,1.2,2.3-1.6,21-3.9,23.8-3,2.3-10.6-1.3-14.6-1.5-18.3-1.8-32.5,4.1-37.1,23.1-4.8,15.8-2,37.3-10.4,52.5-.5.4-1,.4-1.6.5-6.4,0-15.6,1-21.5,0h0Z"/>
  <path class="st5" d="M678.8,191.6c6.1-40.9,6.5-89.5,57.1-96.7,12.1-1.7,25.4-.4,36.7,3.9-.2,1.2-4.3,21.6-4.7,23.6-61-12.9-52.3,26.3-61.8,70.6-.2,2-2.3,3.1-3.9,3.3-1.6-.1-18.1-.4-23.6-.8-.7-1-.2-2.9.2-4h0Z"/>
  <path class="st5" d="M1244,58.5c14.7-2.1,25,11.8,18.1,25.2-4.4,8.6-12.9,9.9-21.8,8.5-15.2-2.4-15.3-30.9,3.7-33.6ZM1255.6,64.4c-11.9-9.2-28,4.2-21.3,18.4,6,12.8,27.3,6.3,26.3-8.7-.1-1.7-3.8-8.8-5-9.6Z"/>
  <path class="st5" d="M678.7,191.7c0,3.4-.9,3.3,2.9,3.4,6.4.5,14.1-1.3,20.2,1,.4.1.5.3,0,.3-7.2.9-16.2-.8-23.6-.1-2.1-.4,0-3.6.5-4.6h0Z"/>
  <path class="st5" d="M562.9,158.9c-2-3.1-2-8.7,0-11.7-.1,3.8-.2,7.9,0,11.7h0Z"/>
  <path class="st4" d="M250.9,91.9c-.6-5-15.1-9.4-19.7-11.7-20.3-8-22.3-10.9-23.1-32.5-.8-5.4,1.8-35.2-8.1-23.3-5.5,7.1-10.4,16.9-15.6,24.5-10.1,15.3-15.5,17.6-34.4,20.8-6.2,1.1-13.2,1.9-19.2,3.3-3,.9-8.9,2-7.4,5.6,2.5,3.4,6.3,4.9,11.3,7.3,5.5,2.5,11.1,4.8,16.5,7.3,11.8,5.1,14.4,9.2,15,20.6.4,5.7.4,11.5.5,17.3.3,6.6,0,11.8,1.8,16.1,2.1,3.5,4.9.4,8.2-3.8,7.4-9.7,13.2-23.8,21.7-32.9,4.7-5,11.1-7.3,17.7-8.6,6.6-1.9,33.6-3.7,34.9-9.8h0c0,0,0,0,0,0Z"/>
  <path class="st5" d="M370.9,103.9c-2.1-2.5-1.8-6.8,0-9.4-.1,3-.2,6.3,0,9.3,0,0,0,0,0,0Z"/>
  <path class="st5" d="M1216.2,59.4c-1.5-.5-7,0-9.4,0,1.8-2,7.5-2,9.4,0Z"/>
  <path class="st5" d="M502,124.9c0-1.9,0-3.9,0-5.8,2.2.8,1.4,4.4,0,5.8Z"/>
  <path class="st5" d="M532.5,119.1l-2.3,4.7c.2-1.5-.2-3.2,0-4.7.8,0,1.6,0,2.3,0h0Z"/>
  <path class="st5" d="M1093.2,160.1c-.3-1.9-1.1-2.6-1.2-5.9,1.9,1,1.1,4,1.2,5.9Z"/>
  <path class="st5" d="M1046.4,188.2l-1.2-2.3c.6-.6.9-2.4,2.3-2.3.9,1.9-1.1,4-1.2,4.7h0Z"/>
  <path class="st5" d="M932.9,136.6c-3.8.3-7.9,0-11.7,0,3-2,8.7-2,11.7,0h0s0,0,0,0Z"/>
  <path class="st1" d="M43.9,41.3c-7.8,6.4-8.8,13.6-11.2,22.7-5.8,21.6-9.2,44-15.3,65.6-.5,6.5,4.7,2.4,7.6.5,10.5-7.1,20.1-17.4,30.5-24.8,4.4-11.8,5.8-24.6,9.4-36.6,0,0,0-.2,0-.2,0,0,0,0,.1,0,0,0,3.7-9.1,10.1-22,4.1-8.2,13.4-19.3,13.4-19.3-13.2,3.4-35.4,6.5-44.7,14.2h0Z"/>
  <path class="st2" d="M188.1,1c-.2-1.4-1.8-1.2-4.8-.4-7,2-21.9,6.2-30.2,8.5-5.4,1.7-10.2,2.3-15.8,3.7l-38.4,11.4c-2.8.8-5.5,1.6-8.2,2.3-.7.2-1.3.4-2.1.5,0,0-6.6,6.7-12.6,16.8-6.2,10.6-11,24.5-11,24.5,8.7-4.5,20.2-7.5,29.2-10.1,20.8-6.2,42.5-9.5,62.8-17.2,2.1-.8,3.9-1.6,5.8-2.8,3.4-2.2,5.8-5.8,8-9.1,3.6-5.4,8.8-11.6,12.6-17.4,1.9-2.8,5.1-8.5,4.7-10.8h0Z"/>
  <path class="st3" d="M108.7,173c-1.5-1.2-3.6-2.2-5.5-3-5.4-2.1-11.4-4.3-17.1-7.2-4.3-2.2-9.8-4.4-12.3-8.6-1.5-2.5-1.8-5.4-2-8.3-.5-7.7-.5-15.6-.8-23.4-.1-3.9-1.2-12-6.3-6.2-6,7.6-9.9,17.2-15.2,25.6-2.5,4.1-5.4,8-9.8,10.1-6.7,2.9-14.6,3.6-22,4.9-4.1.6-8,1.2-11.1,1.8-3.5.6-6.1,1.4-6.4,2.7-.8,1.6,4.1,4.5,6.5,5.6,6.4,3,12.6,5.6,18.6,8.9,8.4,4.1,12.2,8.5,12,18.1,0,7,.6,13.7,1.1,20.4.2,2,.3,4.4,1,6.2,1.8,4,5.2-1.1,6.4-3,5-8.9,11.7-20.4,17.7-29.2,2.8-4.1,7.1-5.1,11.7-6,9.1-1.8,22.6-3.7,30-5.1,2.6-.5,6.9-1.7,3.8-4.2h-.1c0,0,0,0,0,0Z"/>
  <path class="st5" d="M1239.6,74.6c0-3.1,0-6.3,0-9.4,6.4-.7,18.3,0,14.4,9.1-.6,1.4-2.7,1.4-2.8,2.1-.2,2.2,4,7.1,2.4,8.7-3.3,3.2-6.5-7.3-7.2-8-.2-.1-3.6.2-4,.9-.7,1.5,2.4,5.6-1.1,7.1s-2.7-1.4-2.9-3.5l1.2-7h0ZM1250,74.5c3.9-2.3-3.3-7.8-6.9-5.7v5.9c1.8-.3,5.7.6,6.9-.1Z"/>
  <path class="st5" d="M1238.4,81.6c-.2-2.1-.6-5.9,1.2-7,0,2.2.8,5.8-1.2,7Z"/>
</svg>