<?xml version="1.0" encoding="UTF-8"?>
<svg id="_图层_2" data-name="图层 2" xmlns="http://www.w3.org/2000/svg" xmlns:xlink="http://www.w3.org/1999/xlink" viewBox="0 0 1264.25 258.91">
  <defs>
    <style>
      .cls-1 {
        fill: #7f7f7e;
      }

      .cls-2 {
        fill: url(#_未命名的渐变_6);
      }

      .cls-3 {
        fill: #6f6e6e;
      }

      .cls-4 {
        fill: #838482;
      }

      .cls-5 {
        fill: #f5f5f6;
      }

      .cls-6 {
        fill: #7a7a7a;
      }

      .cls-7 {
        fill: #848484;
      }

      .cls-8 {
        fill: #fff;
      }

      .cls-9 {
        fill: #535453;
      }

      .cls-10 {
        fill: #838487;
      }

      .cls-11 {
        fill: #868688;
      }

      .cls-12 {
        fill: #959595;
      }

      .cls-13 {
        fill: #f6f6f5;
      }

      .cls-14 {
        fill: url(#_未命名的渐变_13);
      }

      .cls-15 {
        fill: url(#_未命名的渐变_21);
      }

      .cls-16 {
        fill: #fcfcfc;
      }
    </style>
    <linearGradient id="_未命名的渐变_6" data-name="未命名的渐变 6" x1="188.58" y1="1648.68" x2="315.67" y2="1686.34" gradientTransform="translate(-105 -1475)" gradientUnits="userSpaceOnUse">
      <stop offset="0" stop-color="#02e2e0"/>
      <stop offset="1" stop-color="#00aaef"/>
    </linearGradient>
    <linearGradient id="_未命名的渐变_21" data-name="未命名的渐变 21" x1="167.95" y1="4.65" x2="85.59" y2="59.55" gradientUnits="userSpaceOnUse">
      <stop offset="0" stop-color="#04f6bc"/>
      <stop offset="1" stop-color="#02ecc6"/>
    </linearGradient>
    <linearGradient id="_未命名的渐变_13" data-name="未命名的渐变 13" x1="90.82" y1="121.23" x2="25.47" y2="206.68" gradientUnits="userSpaceOnUse">
      <stop offset="0" stop-color="#06acee"/>
      <stop offset="1" stop-color="#00dee1"/>
    </linearGradient>
  </defs>
  <g id="_图层_1-2" data-name="图层 1">
    <g>
      <path class="cls-16" d="M370.89,94.37c4.06-48.85,85.98-47.82,110.71-15.55,2.4,3.43-2.44,5.07-5.13,8.16-2.55,2.52-9.01,10.6-13.28,13.32-.44.21-.45-.04-1.29-.65-3.2-2.53-8.67-6.86-12.15-9.61-11.98-6.09-33.66-12.71-45.42-1.91-5.92,5.65-3.26,14.27,4.35,18.28,21.31,12.04,59.62,8.15,66.58,37.57,12,64.07-92.71,68.26-120.5,27.27-.88-5.42,14.32-15.01,18.55-19.7.39-.41.72-.34,1.25.06,14.52,12,30.07,21.91,49.97,20.1,6.59-.56,14.11-3.04,18-8.2,15.28-33.86-81.28-14.28-71.64-69.14Z"/>
      <path class="cls-16" d="M1206.92,59.29c3.25-.8,7.68-1.6,10.33.98-12.73,57.01-2.38,143.84-86.43,137.44-23.74-3.02-35.31-18.55-38.58-42.62-1.15-25.53,16.03-52.89,41.63-59.05,14.56-3.67,38.21-2.12,47.06,11.27.75-1.91,7.88-46.13,8.34-47.87,5.77-.19,11.86.02,17.66-.15ZM1165.36,120.54c-5.44-3.76-17.42-3.95-23.7-2.07-7.16,2.32-12.93,7.32-16.52,13.21-9.18,14.22-6.32,37.96,12.39,41.97,29.85,6.43,52.71-32.68,27.83-53.11Z"/>
      <path class="cls-16" d="M1045.17,185.85c-20.67,18.36-57.24,15.83-69.35-10.36-20.06-47.15,30.45-103.45,76.99-73.97,1.89,1.28,5.92,6.42,7.74,4.43.64-1.31.55-10.55,3.27-10.29,6.08,0,19.47,0,25.87,0-.39,2.83-13.03,77.99-16.26,97.26-.17,2.32-1.17,3.23-3.36,3.5-6.5,1.07-15.83-.83-22.77-.17-1.67.41-.75-8.52-.58-9.8.25-2-.4-1.88-1.54-.61ZM1044.8,121.72c-37.47-21.28-65.16,38.14-29.84,51.62,28.96,8.08,54.15-31.1,29.84-51.62Z"/>
      <path class="cls-16" d="M562.87,147.05c2.01-33.05,29.59-56.13,62.75-52.39,8.38.94,17.86,4.39,22.75,11.73,1.02,1.78,2.5-.52,2.8-1.69,1.05-4.63.95-9.16,7.34-9.04,1.78.04,16.21-.07,21.39.03-3.3,32.36-10.44,64.58-15.28,96.85-.39,1.38-1.73,3.59-2.97,3.8-2.61-.16-20.4.35-23.85-.21-2.48-1.35,1.23-10.15,1.22-12.37-33.16,29.75-82.24,9.84-76.15-36.72ZM637.41,122.98c-28.38-22.02-61.98,18.65-41.36,44.26,26.89,25.03,67.25-19.15,41.36-44.26Z"/>
      <path class="cls-16" d="M884.92,154.51c4.12,25.76,34,24.46,51.09,11.47,1.37-.63,1.77-1.1,2.56-.71,3.36,2.29,10.91,8.74,13.1,12.51,2.3,2.95-.94,4.88-3.04,6.84-18.56,15.71-53.72,17.89-74.58,4.33-28.77-19.92-16.78-70.87,10.82-86.81,26.08-14.79,74.06-10.34,79.38,25.05.59,4.63.86,24.17-2.18,26.8-1.89.81-75.12-.36-77.16.39l.02.12ZM921.27,136.65c4.88-.06,9.89.54,14.62-.36,1.55-.38,1.71-1.94,1.51-3.38-1.68-4.66-4.91-10-8.58-13.53-8.01-5.26-24.96-4.57-31.63,2.99-2.69,2.7-6.34,6.8-8.4,9.62-1.06,1.73-2.33,2.64-.94,3.78,9.62,2.84,22.99.69,33.41.87Z"/>
      <path class="cls-2" d="M233.22,124.98c3.63,4.05.04,13.34-.67,18.85-2.69,13.08-6.27,28.85-9.87,42.25-2.43,8.15-4.32,18.09-9.36,24.09-3.61,4.19-8.93,7.85-14.01,9.59-14.73,4.26-65.9,18.14-94.55,26.11-15.79,4.35-34.69,9.6-47.05,12.93-5.73,1.3-.95-7.88,1.09-11.45,4.27-6.99,10-15.27,14.8-21.46,2.79-3.56,6.2-6.56,10.3-8.33,29.55-10.93,63.03-15.41,92.18-25.91,4.75-1.74,9.46-3.99,12.02-8.4,4.25-7.93,4.79-18.81,7.46-27.49,1.92-8.26,6.8-12.62,13.1-17.39,4.55-3.54,10.07-7.66,14.35-10.58,4.26-2.62,7.01-4.8,10.11-2.87l.08.07Z"/>
      <path class="cls-16" d="M501.93,119.19c-3.44-1.36-14.89,1.05-17.35-.15,2.58-6.48,1.71-21.6,6.65-23.21,3.94-.85,8.87.29,12.85-.09,1.53-.12,2.78-.48,3.2-1.17,1.37-4.7,3.27-26.41,5.64-28.06,7.91-.3,17.56-.01,25.76-.11,1.04.05.88-.22.78.55-1.36,8.6-3.34,20.59-4.58,28.7,1.3.04,25.82,0,27.95.02.79,3.89-1.4,18.75-2.83,22.26-.15.3-.23.5-.62.62-2.72.51-5.61.55-8.41.62-5.77.07-11.56-.34-17.29-.13-2.27-.02-3.19,2.4-3.47,4.41-1.11,10.12-7.86,37.07-4.86,44.81,2.33,4.88,8.63,5.05,13.95,4.81,3.38.74,11.84-3.71,12.85.59,0,2.17-2.85,18-3.74,20.11-1.55,2.36-4.86,2.86-9.36,3.47-63.49,4.46-37.75-38.97-37.09-78.05Z"/>
      <path class="cls-16" d="M769.51,196.31c-.61-.24-2.22-.92-2.71-1.4.19-13.6,4.88-35.94,7.51-50.43,7.18-41.21,45.82-58.95,84.26-46.53,1.17,2.26-1.56,21.04-3.91,23.84-2.99,2.3-10.62-1.29-14.64-1.46-18.34-1.85-32.5,4.11-37.12,23.1-4.84,15.82-2.01,37.26-10.37,52.47-.45.41-.98.45-1.56.46-6.43.02-15.62.98-21.46-.05Z"/>
      <path class="cls-16" d="M678.76,191.62c6.08-40.92,6.45-89.48,57.07-96.69,12.14-1.67,25.36-.45,36.73,3.89-.17,1.23-4.32,21.56-4.7,23.56-60.96-12.86-52.3,26.34-61.79,70.63-.22,2-2.26,3.12-3.92,3.34-1.63-.12-18.09-.4-23.56-.76-.7-.99-.24-2.85.17-3.97Z"/>
      <path class="cls-13" d="M1243.99,58.46c14.65-2.12,24.97,11.78,18.08,25.16-4.41,8.55-12.95,9.88-21.82,8.47-15.22-2.42-15.34-30.87,3.74-33.63ZM1255.62,64.42c-11.89-9.19-27.99,4.15-21.3,18.38,6.04,12.84,27.29,6.28,26.29-8.73-.11-1.65-3.84-8.76-4.99-9.65Z"/>
      <path class="cls-1" d="M678.68,191.74c-.03,3.41-.91,3.3,2.94,3.43,6.44.51,14.09-1.29,20.18.96.42.15.46.27,0,.33-7.19.88-16.18-.76-23.61-.15-2.11-.39-.02-3.6.49-4.61v.03Z"/>
      <path class="cls-11" d="M562.9,158.92c-1.99-3.08-2-8.66,0-11.71-.12,3.79-.23,7.88.03,11.68l-.03.02Z"/>
      <path class="cls-8" d="M250.94,91.92c-.64-5-15.13-9.39-19.7-11.72-20.29-7.99-22.29-10.95-23.06-32.49-.82-5.41,1.79-35.18-8.13-23.26-5.49,7.06-10.39,16.88-15.62,24.47-10.12,15.31-15.47,17.59-34.41,20.75-6.18,1.09-13.23,1.9-19.24,3.29-2.99.86-8.9,2.04-7.45,5.57,2.46,3.43,6.32,4.87,11.3,7.35,5.5,2.5,11.08,4.8,16.48,7.28,11.81,5.12,14.45,9.21,15,20.63.36,5.68.39,11.48.52,17.27.28,6.63,0,11.75,1.78,16.05,2.05,3.54,4.92.38,8.17-3.8,7.37-9.72,13.23-23.78,21.74-32.91,4.71-4.98,11.1-7.32,17.69-8.61,6.65-1.91,33.64-3.73,34.92-9.78v-.09Z"/>
      <path class="cls-7" d="M370.89,103.9c-2.1-2.47-1.76-6.79,0-9.37-.12,2.98-.18,6.32.04,9.35l-.04.02Z"/>
      <path class="cls-4" d="M1216.17,59.38c-1.5-.51-7.03.05-9.37,0,1.8-1.95,7.52-1.97,9.37,0Z"/>
      <path class="cls-9" d="M502.05,124.94c.06-1.95-.04-3.9,0-5.85,2.24.78,1.38,4.41,0,5.85Z"/>
      <path class="cls-12" d="M532.49,119.09l-2.34,4.68c.19-1.52-.16-3.16,0-4.69.77-.06,1.56.05,2.34,0Z"/>
      <path class="cls-10" d="M1093.25,160.06c-.3-1.85-1.14-2.64-1.17-5.85,1.9,1,1.1,3.98,1.17,5.85Z"/>
      <path class="cls-7" d="M1046.42,188.16l-1.17-2.34c.64-.56.92-2.44,2.33-2.34.9,1.87-1.1,4-1.16,4.68Z"/>
      <path class="cls-3" d="M932.88,136.65c-3.8.32-7.91-.02-11.68-.04,3-2,8.67-1.97,11.71,0l-.02.04Z"/>
      <path class="cls-8" d="M43.92,41.34c-7.76,6.41-8.79,13.62-11.24,22.71-5.84,21.61-9.23,43.98-15.32,65.55-.53,6.51,4.73,2.44,7.62.5,10.5-7.07,20.13-17.37,30.51-24.75,4.41-11.83,5.79-24.6,9.4-36.6.02-.08.04-.16.06-.24.03-.02.07-.03.11-.05,0,0,3.73-9.11,10.12-21.97,4.05-8.16,13.42-19.33,13.42-19.33-13.18,3.4-35.36,6.5-44.67,14.19Z"/>
      <path class="cls-15" d="M188.1,1.02c-.24-1.39-1.84-1.21-4.83-.36-7.01,1.97-21.94,6.16-30.22,8.48-5.44,1.67-10.19,2.32-15.78,3.74l-38.44,11.38c-2.78.76-5.46,1.56-8.19,2.34-.65.19-1.34.37-2.05.55,0,0-6.63,6.68-12.57,16.79-6.25,10.62-10.97,24.51-10.97,24.51,8.73-4.54,20.2-7.47,29.22-10.08,20.75-6.19,42.55-9.5,62.81-17.16,2.1-.85,3.89-1.56,5.8-2.8,3.43-2.21,5.8-5.78,8-9.14,3.56-5.38,8.82-11.61,12.56-17.42,1.94-2.83,5.06-8.53,4.66-10.84Z"/>
      <path class="cls-14" d="M108.66,172.96c-1.49-1.19-3.6-2.19-5.46-2.98-5.39-2.09-11.43-4.34-17.12-7.25-4.35-2.23-9.76-4.35-12.35-8.58-1.48-2.46-1.76-5.4-1.99-8.26-.54-7.69-.48-15.64-.82-23.43-.11-3.92-1.2-12.01-6.28-6.19-5.99,7.55-9.89,17.23-15.25,25.58-2.54,4.07-5.41,8.03-9.84,10.08-6.66,2.92-14.65,3.61-21.99,4.89-4.08.63-7.98,1.21-11.09,1.79-3.5.65-6.06,1.42-6.4,2.71-.76,1.58,4.12,4.51,6.46,5.56,6.39,3.01,12.59,5.57,18.61,8.92,8.41,4.09,12.16,8.51,12.04,18.14.1,6.97.61,13.71,1.06,20.41.15,2.02.31,4.39.99,6.18,1.82,3.98,5.17-1.06,6.39-3.03,4.99-8.93,11.71-20.45,17.65-29.23,2.76-4.09,7.13-5.11,11.71-5.96,9.08-1.8,22.6-3.66,29.98-5.06,2.55-.48,6.94-1.69,3.8-4.2l-.11-.09Z"/>
      <path class="cls-5" d="M1239.59,74.6c.04-3.12-.04-6.26,0-9.37,6.41-.74,18.34-.03,14.43,9.13-.62,1.44-2.73,1.36-2.79,2.08-.18,2.16,4.02,7.11,2.41,8.69-3.28,3.22-6.48-7.3-7.21-7.99-.15-.14-3.63.24-3.96.93-.71,1.48,2.38,5.59-1.13,7.06s-2.73-1.39-2.92-3.5l1.17-7.02ZM1249.99,74.48c3.9-2.29-3.26-7.85-6.89-5.74v5.86c1.81-.32,5.65.61,6.89-.12Z"/>
      <path class="cls-6" d="M1238.42,81.62c-.19-2.06-.63-5.87,1.17-7.02-.03,2.21.8,5.75-1.17,7.02Z"/>
    </g>
  </g>
</svg>